<?xml version="1.0" encoding="UTF-8"?>
<svg id="_レイヤー_1" data-name="レイヤー 1" xmlns="http://www.w3.org/2000/svg" viewBox="0 0 126.73 11.77">
  <defs>
    <style>
      .cls-1 {
        fill: #e1e1e1;
      }
    </style>
  </defs>
  <path class="cls-1" d="M0,11.77h4.24v-.06c-.5-.39-.95-.87-1.36-1.44s-.74-1.23-.99-1.96-.37-1.52-.37-2.36.12-1.64.37-2.37.58-1.38.99-1.96c.41-.58.87-1.06,1.36-1.44v-.06H0v11.65Z"/>
  <path class="cls-1" d="M15.11,6.14c.19-.25.37-.5.54-.76.31-.48.58-.96.83-1.44.24-.48.45-.92.63-1.33.05-.14.13-.31.23-.51.1-.2.19-.37.26-.49l-1.6-.51c-.04.15-.08.32-.14.51-.05.19-.11.36-.17.5-.24.61-.53,1.25-.88,1.9-.23.43-.52.86-.85,1.29-.11-.08-.23-.16-.35-.24-.36-.24-.74-.48-1.14-.73-.4-.25-.79-.49-1.18-.73-.39-.24-.76-.46-1.11-.66l-.91.99c.4.22.81.46,1.21.71.4.25.8.5,1.18.75s.73.49,1.06.72c.12.09.23.17.34.25-.62.68-1.3,1.33-2.07,1.92-.91.71-2.01,1.34-3.28,1.88l1.21.98c.88-.42,1.67-.88,2.35-1.36.69-.49,1.31-.99,1.86-1.5.38-.36.73-.71,1.05-1.07.47.37.93.74,1.37,1.1.62.52,1.22,1.09,1.81,1.7l1.1-1.09c-.55-.54-1.16-1.08-1.84-1.62-.49-.4-1.01-.78-1.53-1.16Z"/>
  <path class="cls-1" d="M25.13,2.7h4.64c.22,0,.45,0,.69.01.24,0,.47.02.69.04v-1.28c-.22.03-.45.04-.7.06-.24.01-.47.02-.68.02h-4.66c-.22,0-.45,0-.67-.02-.23-.01-.45-.03-.66-.06v1.28c.19-.02.41-.03.65-.04.24,0,.47-.01.7-.01Z"/>
  <path class="cls-1" d="M32.43,4.67h-9.02c-.21,0-.42,0-.64-.02-.22-.01-.42-.03-.61-.04v1.29c.19-.02.4-.03.62-.03.22,0,.43,0,.63,0h3.97c-.03.45-.07.89-.14,1.31-.1.59-.33,1.13-.67,1.62-.27.38-.63.74-1.09,1.07-.46.33-.95.59-1.45.78l1.27.84c.4-.18.78-.4,1.14-.66s.67-.53.94-.81.5-.57.66-.85c.3-.51.52-1.09.66-1.74.1-.48.15-1.01.18-1.56h3.57c.17,0,.37,0,.59,0,.21,0,.41,0,.57.02v-1.28c-.17.03-.37.04-.6.05-.22,0-.41.01-.56.01Z"/>
  <path class="cls-1" d="M32.12,2.58l.91-.35c-.09-.17-.2-.35-.33-.56-.13-.21-.26-.41-.4-.62-.14-.21-.27-.38-.39-.52l-.88.33c.18.23.38.51.58.84.2.33.37.62.51.87Z"/>
  <path class="cls-1" d="M33.87.54c-.14-.21-.28-.39-.41-.54l-.88.33c.19.23.39.51.6.83.21.32.38.62.53.88l.89-.36c-.08-.15-.19-.32-.32-.53-.13-.2-.27-.41-.41-.61Z"/>
  <path class="cls-1" d="M43.92,3.77c-.35.31-.74.61-1.16.91-.42.3-.85.57-1.29.82-.38.2-.84.42-1.38.66-.54.24-1.12.46-1.74.67-.62.21-1.23.37-1.84.5l.66,1.17c.42-.12.86-.26,1.31-.42.46-.16.9-.32,1.34-.5.44-.17.85-.35,1.23-.52.09-.04.17-.08.26-.12v3.57c0,.13,0,.28,0,.44,0,.16-.01.31-.02.44,0,.13-.02.24-.03.31h1.6c-.02-.07-.03-.18-.04-.31,0-.13-.02-.28-.02-.44,0-.16,0-.31,0-.44v-4.37c.25-.15.5-.29.75-.45.48-.31.93-.63,1.34-.95.41-.32.75-.61,1.01-.86l-1.07-.94c-.24.26-.53.55-.89.86Z"/>
  <path class="cls-1" d="M59.87,1.6c-.14.02-.29.03-.44.03s-.28,0-.38,0h-7.7c-.28,0-.55-.01-.83-.04-.28-.02-.54-.05-.8-.07v1.38c.29-.03.57-.04.83-.06.26-.01.52-.02.8-.02h7.55c-.1.18-.25.39-.44.61s-.42.46-.67.7c-.25.24-.52.47-.81.69-.29.22-.58.41-.89.56l1.14.83c.5-.31.96-.68,1.4-1.1.44-.42.83-.83,1.17-1.25.34-.41.61-.77.81-1.08.06-.07.14-.16.23-.27.09-.1.16-.19.23-.25l-.87-.73c-.07.02-.18.03-.32.05Z"/>
  <path class="cls-1" d="M54,4.44c0,.16.01.32.01.48,0,.51-.03,1-.09,1.45-.06.45-.17.88-.32,1.27-.15.39-.38.76-.68,1.1s-.7.65-1.2.94c-.21.14-.43.26-.67.37s-.45.18-.65.24l1.27.93c.72-.33,1.32-.69,1.79-1.09.47-.4.84-.82,1.12-1.27.28-.45.48-.93.61-1.45.13-.52.22-1.06.25-1.64.04-.58.05-1.19.05-1.83h-1.57c.04.18.06.35.07.51Z"/>
  <path class="cls-1" d="M87.2,4.93c-.14,0-.26,0-.37,0h-3.66v-2.2c.18-.03.36-.05.55-.08.38-.06.73-.12,1.07-.18.34-.06.65-.13.92-.19.11-.02.24-.05.39-.09.15-.03.32-.07.5-.11l-.9-1.09c-.17.07-.39.15-.65.22-.26.07-.55.14-.87.2-.32.06-.65.12-.99.17-.34.05-.68.1-1,.14-.5.07-1.04.11-1.63.14s-1.16.05-1.69.06c-.54,0-.98,0-1.34,0l.34,1.14c.41,0,.89-.02,1.42-.04.54-.02,1.1-.04,1.67-.07.27-.02.51-.04.77-.06v2.05h-4.02c-.22,0-.44,0-.66-.02-.22-.01-.41-.03-.58-.04v1.28c.17-.02.37-.03.6-.03.22,0,.44,0,.65,0h3.95c-.06.52-.15,1.01-.32,1.44-.26.64-.65,1.19-1.16,1.66s-1.17.87-1.96,1.2l1.36.84c.88-.46,1.58-.99,2.1-1.57.52-.59.89-1.24,1.12-1.96.16-.5.24-1.04.29-1.61h3.74c.18,0,.38,0,.58,0,.2,0,.39.01.55.03v-1.26c-.1,0-.22.02-.37.02s-.28.01-.43.02Z"/>
  <path class="cls-1" d="M102.41,5.21h-7.49c-.24,0-.49,0-.75-.01-.26,0-.51-.02-.73-.03s-.42-.02-.57-.03v1.54c.24-.02.55-.03.92-.04.38-.01.75-.02,1.13-.02h7.49c.3,0,.6,0,.88.02.29.02.5.03.66.04v-1.54c-.17,0-.38.02-.65.04-.27.02-.56.03-.89.03Z"/>
  <path class="cls-1" d="M117.53,7.99c-.28-.48-.57-.94-.86-1.38-.29-.44-.55-.83-.79-1.16l-1.34.52c.25.29.51.65.79,1.09.26.42.52.86.78,1.33-.14.02-.27.03-.43.05-.45.05-.94.1-1.47.16-.53.06-1.07.11-1.63.16-.56.05-1.11.1-1.64.15-.17.02-.32.03-.49.04.05-.11.09-.21.14-.34.14-.36.3-.75.46-1.19.17-.44.33-.89.51-1.36.17-.47.34-.92.5-1.36.16-.44.31-.84.43-1.21.13-.36.23-.65.3-.87.1-.27.2-.51.28-.71s.17-.38.24-.54l-1.72-.32c-.03.18-.06.37-.1.56-.04.19-.11.43-.2.73-.06.23-.16.53-.29.9-.13.37-.27.78-.43,1.23s-.32.92-.5,1.4c-.18.48-.36.96-.53,1.41-.17.46-.34.88-.5,1.26-.08.19-.15.36-.22.52-.2.01-.39.02-.56.02-.2,0-.43.01-.67.02s-.48,0-.7,0l.25,1.44c.21-.02.42-.05.63-.08.21-.03.4-.05.58-.07.32-.02.71-.06,1.18-.1.46-.04.97-.09,1.51-.14.55-.05,1.11-.11,1.69-.17.58-.06,1.14-.12,1.69-.17s1.06-.11,1.54-.16c.29-.03.54-.06.77-.08.05.11.12.22.17.32.23.47.41.88.56,1.23l1.46-.59c-.15-.33-.34-.72-.58-1.17s-.51-.91-.79-1.39Z"/>
  <path class="cls-1" d="M122.49.12v.06c.5.38.96.86,1.37,1.44.41.58.74,1.23.99,1.96.25.73.37,1.52.37,2.37s-.12,1.63-.37,2.36c-.25.73-.58,1.38-.99,1.96s-.87,1.06-1.37,1.44v.06h4.24V.12h-4.24Z"/>
  <path class="cls-1" d="M68.24,4.91c-.55,0-1,.45-1,1s.45,1,1,1,1-.45,1-1-.45-1-1-1Z"/>
</svg>