<?xml version="1.0" encoding="UTF-8"?>
<svg id="_レイヤー_1" data-name="レイヤー 1" xmlns="http://www.w3.org/2000/svg" viewBox="0 0 126.82 13.36">
  <defs>
    <style>
      .cls-1 {
        fill: #e1e1e1;
      }
    </style>
  </defs>
  <path class="cls-1" d="M4.99,5.31c-.94,0-1.59.36-1.94,1.08-.18.38-.27.87-.27,1.46v5.19H0V3.47h2.69v1.4c.36-.49.7-.85,1.02-1.06.57-.39,1.3-.58,2.18-.58,1.1,0,2,.26,2.7.78.7.52,1.05,1.38,1.05,2.58v6.45h-2.85v-5.83c0-.5-.08-.89-.22-1.16-.27-.49-.79-.74-1.56-.74Z"/>
  <path class="cls-1" d="M16.26,0v2.31h-2.82V0h2.82ZM16.26,3.45v9.58h-2.82V3.45h2.82Z"/>
  <path class="cls-1" d="M27.89,3.89c.83.48,1.31,1.31,1.44,2.48h-2.78c-.04-.32-.14-.58-.3-.76-.31-.34-.83-.51-1.56-.51-.61,0-1.04.08-1.29.25s-.39.37-.39.6c0,.29.14.5.41.62.27.13,1.24.37,2.9.69,1.11.23,1.94.59,2.49,1.06.55.48.82,1.08.82,1.8,0,.95-.39,1.72-1.18,2.32-.78.6-2,.9-3.64.9s-2.91-.32-3.71-.95c-.8-.63-1.2-1.45-1.2-2.43h2.82c.06.45.19.76.38.95.34.33.98.5,1.91.5.55,0,.98-.07,1.3-.22s.48-.37.48-.66-.13-.5-.39-.64-1.23-.4-2.9-.76c-1.2-.27-2.05-.61-2.55-1.01-.5-.4-.74-.97-.74-1.72,0-.88.39-1.64,1.16-2.28s1.86-.95,3.26-.95,2.41.24,3.25.71Z"/>
  <path class="cls-1" d="M43.19,10.22c-.07.57-.4,1.15-.99,1.73-.91.93-2.19,1.4-3.83,1.4-1.35,0-2.55-.39-3.58-1.18s-1.55-2.06-1.55-3.83c0-1.66.47-2.93,1.4-3.81s2.15-1.33,3.64-1.33c.89,0,1.68.15,2.39.45s1.3.77,1.76,1.42c.42.57.69,1.23.81,1.98.07.44.1,1.07.09,1.9h-7.29c.04.96.37,1.63,1.01,2.02.38.24.85.36,1.39.36.57,0,1.04-.15,1.4-.44.2-.16.37-.38.52-.66h2.84ZM40.43,7.29c-.05-.66-.27-1.16-.67-1.51-.4-.34-.9-.51-1.49-.51-.64,0-1.14.18-1.5.54s-.58.86-.67,1.48h4.33Z"/>
  <path class="cls-1" d="M52.87,11.25v1.87l-1.32.04c-1.32.04-2.21-.16-2.7-.62-.31-.29-.47-.73-.47-1.33v-5.9h-1.48v-1.78h1.48V.87h2.75v2.67h1.73v1.78h-1.73v5.06c0,.39.06.64.17.73.11.1.45.15,1.02.15.08,0,.17,0,.27,0,.09,0,.19,0,.28-.01Z"/>
  <path class="cls-1" d="M66.57,10.22c-.07.57-.4,1.15-.99,1.73-.91.93-2.19,1.4-3.83,1.4-1.35,0-2.55-.39-3.58-1.18s-1.55-2.06-1.55-3.83c0-1.66.47-2.93,1.4-3.81s2.15-1.33,3.64-1.33c.89,0,1.68.15,2.39.45s1.3.77,1.76,1.42c.42.57.69,1.23.81,1.98.07.44.1,1.07.09,1.9h-7.29c.04.96.37,1.63,1.01,2.02.38.24.85.36,1.39.36.57,0,1.04-.15,1.4-.44.2-.16.37-.38.52-.66h2.84ZM63.82,7.29c-.05-.66-.27-1.16-.67-1.51-.4-.34-.9-.51-1.49-.51-.64,0-1.14.18-1.5.54s-.58.86-.67,1.48h4.33Z"/>
  <path class="cls-1" d="M80.07,13.03h-3.47l-1.84-2.87-1.85,2.87h-3.38l3.63-4.85-3.48-4.71h3.41l1.78,2.78,1.74-2.78h3.31l-3.5,4.67,3.63,4.9Z"/>
  <path class="cls-1" d="M89.38,11.25v1.87l-1.32.04c-1.32.04-2.21-.16-2.7-.62-.31-.29-.47-.73-.47-1.33v-5.9h-1.48v-1.78h1.48V.87h2.75v2.67h1.73v1.78h-1.73v5.06c0,.39.06.64.17.73.11.1.45.15,1.02.15.08,0,.17,0,.27,0,.09,0,.19,0,.28-.01Z"/>
  <path class="cls-1" d="M100.39,11.68s-.09.12-.2.26-.23.28-.37.39c-.44.35-.86.59-1.26.72s-.88.19-1.43.19c-1.58,0-2.64-.51-3.18-1.53-.31-.56-.46-1.39-.46-2.49V3.45h2.85v5.77c0,.54.07.96.21,1.23.25.49.75.73,1.49.73.95,0,1.6-.35,1.95-1.04.18-.38.27-.87.27-1.49V3.45h2.82v9.58h-2.71v-1.35Z"/>
  <path class="cls-1" d="M112.73,5.77c-1.12,0-1.87.33-2.26.98-.21.37-.32.94-.32,1.71v4.58h-2.8V3.45h2.66v1.67c.43-.64.8-1.08,1.12-1.31.52-.39,1.2-.59,2.03-.59.05,0,.1,0,.13,0,.04,0,.12,0,.24.01v2.57c-.18-.02-.33-.03-.47-.04s-.25,0-.33,0Z"/>
  <path class="cls-1" d="M126.68,10.22c-.07.57-.4,1.15-.99,1.73-.91.93-2.19,1.4-3.83,1.4-1.35,0-2.55-.39-3.58-1.18s-1.55-2.06-1.55-3.83c0-1.66.47-2.93,1.4-3.81s2.15-1.33,3.64-1.33c.89,0,1.68.15,2.39.45s1.3.77,1.76,1.42c.42.57.69,1.23.81,1.98.07.44.1,1.07.09,1.9h-7.29c.04.96.37,1.63,1.01,2.02.38.24.85.36,1.39.36.57,0,1.04-.15,1.4-.44.2-.16.37-.38.52-.66h2.84ZM123.92,7.29c-.05-.66-.27-1.16-.67-1.51-.4-.34-.9-.51-1.49-.51-.64,0-1.14.18-1.5.54s-.58.86-.67,1.48h4.33Z"/>
</svg>