<?xml version="1.0" encoding="UTF-8"?>
<svg id="_レイヤー_1" data-name="レイヤー 1" xmlns="http://www.w3.org/2000/svg" viewBox="0 0 131.63 40.48">
  <defs>
    <style>
      .cls-1 {
        fill: #e1e1e1;
      }
    </style>
  </defs>
  <g>
    <path class="cls-1" d="M7.39,8.66c-.94,0-1.59.36-1.94,1.08-.18.38-.27.87-.27,1.46v5.19h-2.77V6.83h2.69v1.4c.36-.49.7-.85,1.02-1.06.57-.39,1.3-.58,2.18-.58,1.1,0,2,.26,2.7.78.7.52,1.05,1.38,1.05,2.58v6.45h-2.85v-5.83c0-.5-.08-.89-.22-1.16-.27-.49-.79-.74-1.56-.74Z"/>
    <path class="cls-1" d="M18.66,3.36v2.31h-2.82v-2.31h2.82ZM18.66,6.81v9.58h-2.82V6.81h2.82Z"/>
    <path class="cls-1" d="M30.29,7.25c.83.48,1.31,1.31,1.44,2.48h-2.78c-.04-.32-.14-.58-.3-.76-.31-.34-.83-.51-1.56-.51-.61,0-1.04.08-1.29.25s-.39.37-.39.6c0,.29.14.5.41.62.27.13,1.24.37,2.9.69,1.11.23,1.94.59,2.49,1.06.55.48.82,1.08.82,1.8,0,.95-.39,1.72-1.18,2.32-.78.6-2,.9-3.64.9s-2.91-.32-3.71-.95c-.8-.63-1.2-1.45-1.2-2.43h2.82c.06.45.19.76.38.95.34.33.98.5,1.91.5.55,0,.98-.07,1.3-.22s.48-.37.48-.66-.13-.5-.39-.64-1.23-.4-2.9-.76c-1.2-.27-2.05-.61-2.55-1.01-.5-.4-.74-.97-.74-1.72,0-.88.39-1.64,1.16-2.28s1.86-.95,3.26-.95,2.41.24,3.25.71Z"/>
    <path class="cls-1" d="M45.59,13.58c-.07.57-.4,1.15-.99,1.73-.91.93-2.19,1.4-3.83,1.4-1.35,0-2.55-.39-3.58-1.18s-1.55-2.06-1.55-3.83c0-1.66.47-2.93,1.4-3.81s2.15-1.33,3.64-1.33c.89,0,1.68.15,2.39.45s1.3.77,1.76,1.42c.42.57.69,1.23.81,1.98.07.44.1,1.07.09,1.9h-7.29c.04.96.37,1.63,1.01,2.02.38.24.85.36,1.39.36.57,0,1.04-.15,1.4-.44.2-.16.37-.38.52-.66h2.84ZM42.84,10.64c-.05-.66-.27-1.16-.67-1.51-.4-.34-.9-.51-1.49-.51-.64,0-1.14.18-1.5.54s-.58.86-.67,1.48h4.33Z"/>
    <path class="cls-1" d="M55.28,14.61v1.87l-1.32.04c-1.32.04-2.21-.16-2.7-.62-.31-.29-.47-.73-.47-1.33v-5.9h-1.48v-1.78h1.48v-2.67h2.75v2.67h1.73v1.78h-1.73v5.06c0,.39.06.64.17.73.11.1.45.15,1.02.15.08,0,.17,0,.27,0,.09,0,.19,0,.28-.01Z"/>
    <path class="cls-1" d="M68.97,13.58c-.07.57-.4,1.15-.99,1.73-.91.93-2.19,1.4-3.83,1.4-1.35,0-2.55-.39-3.58-1.18s-1.55-2.06-1.55-3.83c0-1.66.47-2.93,1.4-3.81s2.15-1.33,3.64-1.33c.89,0,1.68.15,2.39.45s1.3.77,1.76,1.42c.42.57.69,1.23.81,1.98.07.44.1,1.07.09,1.9h-7.29c.04.96.37,1.63,1.01,2.02.38.24.85.36,1.39.36.57,0,1.04-.15,1.4-.44.2-.16.37-.38.52-.66h2.84ZM66.22,10.64c-.05-.66-.27-1.16-.67-1.51-.4-.34-.9-.51-1.49-.51-.64,0-1.14.18-1.5.54s-.58.86-.67,1.48h4.33Z"/>
    <path class="cls-1" d="M82.47,16.39h-3.47l-1.84-2.87-1.85,2.87h-3.38l3.63-4.85-3.48-4.71h3.41l1.78,2.78,1.74-2.78h3.31l-3.5,4.67,3.63,4.9Z"/>
    <path class="cls-1" d="M91.78,14.61v1.87l-1.32.04c-1.32.04-2.21-.16-2.7-.62-.31-.29-.47-.73-.47-1.33v-5.9h-1.48v-1.78h1.48v-2.67h2.75v2.67h1.73v1.78h-1.73v5.06c0,.39.06.64.17.73.11.1.45.15,1.02.15.08,0,.17,0,.27,0,.09,0,.19,0,.28-.01Z"/>
    <path class="cls-1" d="M102.8,15.04s-.09.12-.2.26-.23.28-.37.39c-.44.35-.86.59-1.26.72s-.88.19-1.43.19c-1.58,0-2.64-.51-3.18-1.53-.31-.56-.46-1.39-.46-2.49v-5.77h2.85v5.77c0,.54.07.96.21,1.23.25.49.75.73,1.49.73.95,0,1.6-.35,1.95-1.04.18-.38.27-.87.27-1.49v-5.21h2.82v9.58h-2.71v-1.35Z"/>
    <path class="cls-1" d="M115.14,9.12c-1.12,0-1.87.33-2.26.98-.21.37-.32.94-.32,1.71v4.58h-2.8V6.81h2.66v1.67c.43-.64.8-1.08,1.12-1.31.52-.39,1.2-.59,2.03-.59.05,0,.1,0,.13,0,.04,0,.12,0,.24.01v2.57c-.18-.02-.33-.03-.47-.04s-.25,0-.33,0Z"/>
    <path class="cls-1" d="M129.08,13.58c-.07.57-.4,1.15-.99,1.73-.91.93-2.19,1.4-3.83,1.4-1.35,0-2.55-.39-3.58-1.18s-1.55-2.06-1.55-3.83c0-1.66.47-2.93,1.4-3.81s2.15-1.33,3.64-1.33c.89,0,1.68.15,2.39.45s1.3.77,1.76,1.42c.42.57.69,1.23.81,1.98.07.44.1,1.07.09,1.9h-7.29c.04.96.37,1.63,1.01,2.02.38.24.85.36,1.39.36.57,0,1.04-.15,1.4-.44.2-.16.37-.38.52-.66h2.84ZM126.33,10.64c-.05-.66-.27-1.16-.67-1.51-.4-.34-.9-.51-1.49-.51-.64,0-1.14.18-1.5.54s-.58.86-.67,1.48h4.33Z"/>
  </g>
  <g>
    <g>
      <path class="cls-1" d="M20.27,28.84c.18-.23.37-.46.53-.7.29-.46.55-.91.78-1.36.23-.45.43-.87.59-1.25.05-.13.12-.29.22-.49.1-.19.18-.34.25-.46l-1.51-.48c-.04.14-.08.3-.13.49s-.1.34-.16.47c-.23.58-.5,1.18-.83,1.8-.22.41-.49.81-.8,1.22-.11-.07-.21-.15-.33-.23-.34-.23-.7-.46-1.07-.69-.38-.23-.75-.46-1.12-.69s-.72-.43-1.05-.62l-.86.94c.38.21.76.44,1.14.67.38.24.75.47,1.11.71.36.23.69.46,1,.68.11.08.22.16.32.23-.59.64-1.23,1.25-1.95,1.81-.86.67-1.9,1.26-3.1,1.78l1.14.92c.83-.4,1.57-.83,2.22-1.29.65-.46,1.24-.93,1.75-1.42.36-.34.68-.67.98-1,.44.35.89.69,1.3,1.03.58.49,1.15,1.03,1.71,1.6l1.04-1.03c-.52-.51-1.1-1.02-1.74-1.53-.47-.38-.97-.75-1.47-1.11Z"/>
      <path class="cls-1" d="M30.29,25.61h4.38c.21,0,.42,0,.65.01.22,0,.44.02.65.04v-1.21c-.21.02-.43.04-.66.05s-.44.02-.64.02h-4.39c-.21,0-.42,0-.64-.02-.22-.01-.42-.03-.62-.05v1.21c.18-.02.39-.03.61-.04s.45-.01.66-.01Z"/>
      <path class="cls-1" d="M37.18,27.48h-8.51c-.2,0-.4,0-.6-.02-.2-.01-.4-.03-.58-.04v1.22c.18-.02.38-.02.58-.03.21,0,.41,0,.6,0h3.74c-.02.43-.06.84-.13,1.23-.1.56-.31,1.07-.64,1.53-.25.36-.6.69-1.03,1.01-.44.31-.89.56-1.37.74l1.2.8c.38-.17.74-.38,1.07-.62.33-.24.63-.5.89-.77.26-.27.47-.54.62-.8.29-.48.49-1.03.62-1.64.1-.45.14-.95.17-1.47h3.37c.17,0,.35,0,.55,0,.2,0,.38.01.54.02v-1.21c-.17.02-.35.04-.57.05-.21,0-.39.01-.53.01Z"/>
      <path class="cls-1" d="M36.88,25.5l.86-.33c-.09-.16-.19-.33-.31-.53-.12-.2-.25-.39-.38-.58s-.25-.36-.36-.49l-.83.32c.17.22.35.48.55.8.19.31.35.58.48.82Z"/>
      <path class="cls-1" d="M38.54,23.58c-.13-.2-.26-.37-.38-.51l-.83.32c.18.22.37.48.57.78.2.3.36.58.5.83l.85-.34c-.08-.14-.18-.31-.31-.5-.13-.19-.26-.38-.39-.58Z"/>
      <path class="cls-1" d="M48.3,26.62c-.33.29-.7.57-1.1.85-.4.28-.81.54-1.22.77-.36.19-.79.39-1.3.62s-1.06.44-1.64.63-1.16.35-1.74.47l.62,1.1c.4-.12.81-.25,1.24-.4s.85-.3,1.26-.47c.41-.16.8-.33,1.16-.49.09-.04.16-.08.25-.12v3.37c0,.12,0,.26,0,.42,0,.15-.01.29-.02.42s-.02.22-.03.29h1.51c-.02-.07-.03-.17-.04-.29s-.02-.26-.02-.42c0-.15,0-.29,0-.42v-4.13c.24-.14.47-.27.71-.42.46-.3.88-.59,1.26-.9.39-.3.7-.57.96-.81l-1.01-.89c-.23.25-.5.52-.84.81Z"/>
      <path class="cls-1" d="M63.88,24.57c-.13.02-.27.03-.42.03-.14,0-.26,0-.36,0h-7.27c-.26,0-.52-.01-.78-.04s-.51-.05-.75-.07v1.3c.28-.02.54-.04.78-.05.24-.01.49-.02.75-.02h7.12c-.1.17-.23.37-.42.58-.18.21-.39.44-.63.66-.24.23-.49.44-.77.65-.27.21-.55.38-.84.53l1.08.78c.47-.3.91-.64,1.32-1.04.41-.39.78-.79,1.11-1.18.33-.39.58-.73.76-1.02.06-.07.13-.15.21-.25s.15-.18.21-.24l-.82-.69c-.07.02-.17.03-.31.05Z"/>
      <path class="cls-1" d="M58.34,27.25c0,.15.01.3.01.46,0,.48-.03.94-.08,1.37-.06.43-.16.83-.3,1.2-.14.37-.36.72-.64,1.04-.29.32-.66.62-1.13.89-.2.13-.41.25-.63.34-.22.1-.43.17-.62.23l1.2.88c.68-.31,1.25-.66,1.69-1.03.44-.38.79-.77,1.05-1.2s.45-.88.58-1.37c.13-.49.21-1,.24-1.55.03-.55.05-1.12.05-1.73h-1.48c.04.17.06.33.07.48Z"/>
      <path class="cls-1" d="M87.9,27.72c-.13,0-.25,0-.34,0h-3.46v-2.08c.17-.03.34-.05.52-.08.36-.05.69-.11,1.01-.17.32-.06.61-.12.87-.18.1-.02.23-.05.37-.08.14-.03.3-.07.47-.11l-.85-1.03c-.16.07-.37.14-.62.21s-.52.13-.82.19-.61.11-.94.16-.64.1-.94.13c-.47.06-.98.11-1.54.13-.56.03-1.09.04-1.6.05s-.93,0-1.27,0l.33,1.08c.39,0,.84-.02,1.35-.04.51-.02,1.03-.04,1.58-.07.26-.01.48-.04.73-.06v1.93h-3.8c-.21,0-.42,0-.62-.02s-.39-.03-.55-.04v1.21c.17-.02.35-.03.57-.03.21,0,.42,0,.62,0h3.72c-.05.49-.14.95-.3,1.36-.24.6-.61,1.12-1.1,1.57-.49.45-1.11.82-1.85,1.13l1.29.8c.83-.44,1.49-.93,1.98-1.49.49-.55.84-1.17,1.06-1.85.15-.47.23-.98.27-1.52h3.53c.17,0,.36,0,.55,0s.36.01.52.03v-1.19c-.1,0-.21.02-.34.02-.13,0-.27.01-.4.02Z"/>
      <path class="cls-1" d="M101.75,27.98h-7.07c-.23,0-.46,0-.71-.01-.25,0-.48-.02-.69-.03-.21-.01-.39-.02-.54-.03v1.45c.23-.02.52-.03.87-.04s.71-.02,1.07-.02h7.07c.29,0,.56,0,.83.02s.48.03.62.04v-1.45c-.16,0-.36.02-.61.04-.25.02-.53.03-.85.03Z"/>
      <path class="cls-1" d="M117.3,31.92c-.23-.42-.48-.86-.75-1.31s-.54-.89-.81-1.3c-.27-.42-.52-.78-.75-1.09l-1.26.49c.23.27.48.62.74,1.03.25.39.49.81.73,1.25-.13.02-.26.03-.41.05-.42.05-.89.1-1.38.15-.5.05-1.01.11-1.54.15-.53.05-1.04.09-1.55.14-.17.02-.31.02-.46.04.04-.1.08-.2.13-.32.13-.33.28-.71.44-1.12.16-.41.32-.84.48-1.28.17-.44.32-.87.47-1.29.15-.42.29-.8.41-1.14.12-.34.22-.62.29-.82.1-.26.18-.48.27-.67.08-.19.16-.36.23-.52l-1.62-.3c-.03.17-.06.35-.1.53s-.1.41-.19.69c-.06.22-.15.5-.27.85-.12.35-.26.74-.4,1.17-.15.42-.31.87-.47,1.32-.17.46-.34.9-.5,1.33-.17.43-.32.83-.47,1.19-.07.18-.14.34-.21.49-.19.01-.37.02-.52.02-.19,0-.4.01-.64.02-.23,0-.45,0-.66,0l.23,1.36c.2-.02.4-.05.6-.08.2-.03.38-.05.55-.06.3-.02.67-.05,1.11-.09s.91-.08,1.43-.13,1.05-.1,1.59-.16,1.08-.11,1.6-.16c.52-.05,1-.11,1.45-.15.27-.03.51-.05.73-.08.05.1.11.21.16.3.21.44.39.83.53,1.16l1.38-.56c-.14-.31-.32-.68-.55-1.1Z"/>
    </g>
    <circle class="cls-1" cx="70.74" cy="28.37" r="1"/>
    <path class="cls-1" d="M11.11,37.6c-4.78,0-8.66-3.89-8.66-8.67s3.89-8.66,8.66-8.66v1c-4.23,0-7.66,3.44-7.66,7.66s3.44,7.67,7.66,7.67v1Z"/>
    <path class="cls-1" d="M120.56,37.6v-1c4.23,0,7.67-3.44,7.67-7.67s-3.44-7.67-7.67-7.67v-1c4.78,0,8.67,3.89,8.67,8.67s-3.89,8.67-8.67,8.67Z"/>
  </g>
</svg>