<?xml version="1.0" encoding="UTF-8"?>
<svg id="_レイヤー_1" data-name="レイヤー 1" xmlns="http://www.w3.org/2000/svg" viewBox="0 0 131.63 40.48">
  <defs>
    <style>
      .cls-1 {
        fill: #e1e1e1;
      }
    </style>
  </defs>
  <g>
    <g>
      <path class="cls-1" d="M6.79,22.71c-.5.38-.95.86-1.36,1.44-.41.58-.74,1.23-.99,1.96s-.37,1.52-.37,2.37.12,1.63.37,2.36.58,1.38.99,1.96.87,1.06,1.36,1.44v.06H2.55v-11.65h4.24v.06Z"/>
      <path class="cls-1" d="M20.15,24.12c-.07.12-.16.29-.26.49-.1.2-.18.37-.23.51-.17.41-.38.85-.63,1.33-.24.48-.52.96-.83,1.44s-.65.94-1.04,1.38c-.42.5-.91,1.01-1.46,1.52-.55.51-1.17,1.01-1.86,1.5-.69.49-1.47.94-2.35,1.36l-1.21-.98c1.28-.54,2.37-1.17,3.28-1.88.91-.71,1.72-1.48,2.43-2.31.57-.65,1.03-1.31,1.38-1.96.35-.66.64-1.29.88-1.9.06-.14.11-.31.17-.5.06-.19.1-.37.14-.51l1.6.51ZM12.74,25.46c.35.2.72.42,1.11.66.39.24.79.48,1.18.73.4.25.78.49,1.14.73.36.24.67.46.94.66.72.51,1.41,1.04,2.09,1.59.67.55,1.29,1.09,1.84,1.62l-1.1,1.09c-.59-.61-1.19-1.18-1.81-1.7-.62-.52-1.28-1.04-1.98-1.57-.25-.19-.53-.4-.86-.63s-.68-.47-1.06-.72-.77-.5-1.18-.75c-.4-.25-.81-.49-1.21-.71l.91-.99Z"/>
      <path class="cls-1" d="M24.71,27.14c.19.02.4.03.61.04.21.01.43.02.64.02h9.02c.15,0,.33,0,.56-.01.23,0,.42-.02.6-.05v1.28c-.17,0-.36-.01-.57-.02-.22,0-.41,0-.59,0h-9.02c-.2,0-.41,0-.63,0-.22,0-.43.01-.62.03v-1.29ZM26.34,24c.21.03.43.04.66.06.23.01.45.02.67.02h4.66c.21,0,.44,0,.68-.02.24-.01.47-.03.7-.06v1.28c-.22-.02-.45-.03-.69-.04-.24,0-.47-.01-.69-.01h-4.64c-.23,0-.46,0-.7.01-.24,0-.45.02-.65.04v-1.28ZM31.45,27.79c0,.79-.07,1.51-.21,2.16s-.36,1.22-.66,1.74c-.17.28-.39.56-.66.85s-.59.56-.94.81-.73.47-1.14.66l-1.27-.84c.5-.19.99-.45,1.45-.78.46-.33.83-.69,1.09-1.07.35-.49.57-1.03.67-1.62.1-.59.16-1.22.17-1.89h1.49ZM34.46,23.06c.12.14.25.31.39.52.14.21.27.41.4.62.13.21.24.39.33.56l-.91.35c-.14-.25-.31-.54-.51-.87-.2-.33-.39-.61-.58-.84l.88-.33ZM36.02,22.52c.13.16.26.34.41.54.14.21.28.41.41.61.13.2.24.38.32.53l-.89.36c-.15-.26-.32-.56-.53-.88-.21-.32-.41-.6-.6-.83l.88-.33Z"/>
      <path class="cls-1" d="M39.06,29.84c.61-.12,1.22-.29,1.84-.5.62-.21,1.2-.43,1.74-.67.54-.24,1-.46,1.38-.66.44-.25.87-.52,1.29-.82.42-.3.81-.6,1.16-.91s.65-.59.89-.86l1.07.94c-.27.26-.6.54-1.01.86-.41.32-.85.63-1.34.95-.48.31-.97.6-1.45.87-.3.17-.65.33-1.03.51-.38.17-.8.35-1.23.52-.44.17-.88.34-1.34.5-.45.16-.89.3-1.31.42l-.66-1.17ZM43.87,28.75l1.47-.29v4.55c0,.13,0,.28,0,.44,0,.16.01.31.02.44,0,.13.02.24.04.31h-1.6c0-.07.02-.18.03-.31,0-.13.02-.28.02-.44,0-.16,0-.31,0-.44v-4.26Z"/>
      <path class="cls-1" d="M63.62,24.81c-.06.07-.14.15-.23.25-.09.1-.16.19-.23.27-.19.31-.46.67-.81,1.08-.34.41-.73.83-1.17,1.25-.44.42-.9.78-1.4,1.1l-1.14-.83c.3-.16.6-.34.89-.56.29-.22.56-.45.81-.69.25-.24.48-.47.67-.7s.34-.43.44-.61h-7.55c-.28,0-.54,0-.8.02-.26.01-.53.03-.83.06v-1.38c.26.02.52.05.8.07.28.03.55.04.83.04h7.7c.1,0,.23,0,.38,0s.3-.01.44-.03c.14-.02.25-.03.32-.05l.87.73ZM58.05,26.45c0,.64-.02,1.26-.05,1.83-.04.58-.12,1.13-.25,1.64-.13.52-.34,1-.61,1.45-.28.45-.65.87-1.12,1.27-.47.4-1.07.76-1.79,1.09l-1.27-.93c.2-.06.42-.14.65-.24s.46-.23.67-.37c.5-.29.9-.6,1.2-.94s.53-.71.68-1.1c.15-.39.26-.82.32-1.27.06-.46.09-.94.09-1.45,0-.17,0-.33-.01-.48,0-.16-.03-.33-.07-.51h1.57Z"/>
      <path class="cls-1" d="M79.04,27.4c.17.02.36.03.58.04.22.01.44.02.66.02h9.1c.1,0,.22,0,.37,0s.28-.01.43-.02.26-.02.37-.02v1.26c-.17-.02-.35-.03-.55-.03-.2,0-.39,0-.58,0h-9.12c-.21,0-.43,0-.65,0-.22,0-.42.01-.6.03v-1.28ZM80.09,24.45c.36,0,.81,0,1.34,0,.54,0,1.1-.03,1.69-.06s1.14-.08,1.63-.14c.32-.04.65-.09,1-.14.34-.05.67-.11.99-.17.32-.06.61-.13.87-.2.26-.07.48-.14.65-.22l.9,1.09c-.18.04-.35.08-.5.11-.15.03-.28.06-.39.09-.28.07-.58.13-.92.19-.34.06-.7.12-1.07.18-.38.06-.74.11-1.1.16-.51.06-1.06.1-1.64.14-.58.03-1.14.06-1.67.07-.54.02-1.01.03-1.42.04l-.34-1.14ZM80.79,32.94c.79-.33,1.44-.73,1.96-1.2s.91-1.02,1.16-1.66c.26-.64.39-1.36.39-2.18v-2.69l1.42-.16v2.84c0,.85-.11,1.64-.34,2.36-.23.72-.6,1.38-1.12,1.96-.52.59-1.22,1.11-2.1,1.57l-1.36-.84Z"/>
      <path class="cls-1" d="M95.42,27.66c.16,0,.35.02.57.03s.47.02.73.03c.26,0,.51.01.75.01h7.49c.33,0,.63-.01.89-.03.27-.02.48-.04.65-.04v1.54c-.16,0-.38-.02-.66-.04-.28-.02-.58-.02-.88-.02h-7.49c-.38,0-.75,0-1.13.02-.38.01-.68.03-.92.04v-1.54Z"/>
      <path class="cls-1" d="M110.81,31.62c.32,0,.71-.03,1.18-.06.46-.03.96-.07,1.49-.12.53-.05,1.08-.1,1.64-.15.56-.05,1.1-.1,1.63-.16.53-.06,1.02-.11,1.47-.16.45-.05.83-.09,1.13-.14l.36,1.24c-.33.03-.73.07-1.21.12-.47.05-.98.1-1.54.16s-1.12.12-1.69.17c-.58.06-1.14.11-1.69.17-.55.05-1.05.1-1.51.14-.46.04-.86.07-1.18.1-.17.02-.37.04-.58.07-.21.03-.42.06-.63.08l-.25-1.44c.22,0,.45,0,.7,0s.47-.01.67-.02ZM115.87,23.9c-.07.17-.15.35-.24.54s-.18.43-.28.71c-.07.21-.17.5-.3.87-.13.36-.27.77-.43,1.21-.16.44-.33.9-.5,1.36-.17.47-.34.92-.51,1.36-.17.44-.32.83-.46,1.19-.14.36-.26.64-.37.84l-1.6.05c.12-.25.26-.56.42-.95.16-.38.33-.81.5-1.26.17-.46.35-.93.53-1.41.18-.48.35-.95.5-1.4s.3-.86.43-1.23c.13-.37.22-.67.29-.9.09-.3.16-.54.2-.73.04-.19.08-.38.1-.56l1.72.32ZM118.43,27.98c.24.33.5.72.79,1.16.29.44.58.9.86,1.38.28.48.55.94.79,1.39s.44.83.58,1.17l-1.46.59c-.15-.36-.33-.77-.56-1.23-.22-.47-.47-.95-.74-1.44-.27-.5-.54-.96-.82-1.4-.28-.44-.54-.8-.79-1.09l1.34-.52Z"/>
      <path class="cls-1" d="M129.28,34.3h-4.24v-.06c.5-.39.96-.87,1.37-1.44s.74-1.23.99-1.96c.25-.73.37-1.52.37-2.36s-.12-1.64-.37-2.37c-.25-.73-.58-1.38-.99-1.96-.41-.58-.87-1.06-1.37-1.44v-.06h4.24v11.65Z"/>
    </g>
    <circle class="cls-1" cx="70.79" cy="28.43" r="1"/>
  </g>
  <g>
    <path class="cls-1" d="M7.57,9.76c-.94,0-1.59.36-1.94,1.08-.18.38-.27.87-.27,1.46v5.19h-2.77V7.92h2.69v1.4c.36-.49.7-.85,1.02-1.06.57-.39,1.3-.58,2.18-.58,1.1,0,2,.26,2.7.78.7.52,1.05,1.38,1.05,2.58v6.45h-2.85v-5.83c0-.5-.08-.89-.22-1.16-.27-.49-.79-.74-1.56-.74Z"/>
    <path class="cls-1" d="M18.84,4.45v2.31h-2.82v-2.31h2.82ZM18.84,7.9v9.58h-2.82V7.9h2.82Z"/>
    <path class="cls-1" d="M30.46,8.34c.83.48,1.31,1.31,1.44,2.48h-2.78c-.04-.32-.14-.58-.3-.76-.31-.34-.83-.51-1.56-.51-.61,0-1.04.08-1.29.25s-.39.37-.39.6c0,.29.14.5.41.62.27.13,1.24.37,2.9.69,1.11.23,1.94.59,2.49,1.06.55.48.82,1.08.82,1.8,0,.95-.39,1.72-1.18,2.32-.78.6-2,.9-3.64.9s-2.91-.32-3.71-.95c-.8-.63-1.2-1.45-1.2-2.43h2.82c.06.45.19.76.38.95.34.33.98.5,1.91.5.55,0,.98-.07,1.3-.22s.48-.37.48-.66-.13-.5-.39-.64-1.23-.4-2.9-.76c-1.2-.27-2.05-.61-2.55-1.01-.5-.4-.74-.97-.74-1.72,0-.88.39-1.64,1.16-2.28s1.86-.95,3.26-.95,2.41.24,3.25.71Z"/>
    <path class="cls-1" d="M45.77,14.67c-.07.57-.4,1.15-.99,1.73-.91.93-2.19,1.4-3.83,1.4-1.35,0-2.55-.39-3.58-1.18s-1.55-2.06-1.55-3.83c0-1.66.47-2.93,1.4-3.81s2.15-1.33,3.64-1.33c.89,0,1.68.15,2.39.45s1.3.77,1.76,1.42c.42.57.69,1.23.81,1.98.07.44.1,1.07.09,1.9h-7.29c.04.96.37,1.63,1.01,2.02.38.24.85.36,1.39.36.57,0,1.04-.15,1.4-.44.2-.16.37-.38.52-.66h2.84ZM43.01,11.74c-.05-.66-.27-1.16-.67-1.51-.4-.34-.9-.51-1.49-.51-.64,0-1.14.18-1.5.54s-.58.86-.67,1.48h4.33Z"/>
    <path class="cls-1" d="M55.45,15.7v1.87l-1.32.04c-1.32.04-2.21-.16-2.7-.62-.31-.29-.47-.73-.47-1.33v-5.9h-1.48v-1.78h1.48v-2.67h2.75v2.67h1.73v1.78h-1.73v5.06c0,.39.06.64.17.73.11.1.45.15,1.02.15.08,0,.17,0,.27,0,.09,0,.19,0,.28-.01Z"/>
    <path class="cls-1" d="M69.15,14.67c-.07.57-.4,1.15-.99,1.73-.91.93-2.19,1.4-3.83,1.4-1.35,0-2.55-.39-3.58-1.18s-1.55-2.06-1.55-3.83c0-1.66.47-2.93,1.4-3.81s2.15-1.33,3.64-1.33c.89,0,1.68.15,2.39.45s1.3.77,1.76,1.42c.42.57.69,1.23.81,1.98.07.44.1,1.07.09,1.9h-7.29c.04.96.37,1.63,1.01,2.02.38.24.85.36,1.39.36.57,0,1.04-.15,1.4-.44.2-.16.37-.38.52-.66h2.84ZM66.39,11.74c-.05-.66-.27-1.16-.67-1.51-.4-.34-.9-.51-1.49-.51-.64,0-1.14.18-1.5.54s-.58.86-.67,1.48h4.33Z"/>
    <path class="cls-1" d="M82.64,17.48h-3.47l-1.84-2.87-1.85,2.87h-3.38l3.63-4.85-3.48-4.71h3.41l1.78,2.78,1.74-2.78h3.31l-3.5,4.67,3.63,4.9Z"/>
    <path class="cls-1" d="M91.96,15.7v1.87l-1.32.04c-1.32.04-2.21-.16-2.7-.62-.31-.29-.47-.73-.47-1.33v-5.9h-1.48v-1.78h1.48v-2.67h2.75v2.67h1.73v1.78h-1.73v5.06c0,.39.06.64.17.73.11.1.45.15,1.02.15.08,0,.17,0,.27,0,.09,0,.19,0,.28-.01Z"/>
    <path class="cls-1" d="M102.97,16.13s-.09.12-.2.26-.23.28-.37.39c-.44.35-.86.59-1.26.72s-.88.19-1.43.19c-1.58,0-2.64-.51-3.18-1.53-.31-.56-.46-1.39-.46-2.49v-5.77h2.85v5.77c0,.54.07.96.21,1.23.25.49.75.73,1.49.73.95,0,1.6-.35,1.95-1.04.18-.38.27-.87.27-1.49v-5.21h2.82v9.58h-2.71v-1.35Z"/>
    <path class="cls-1" d="M115.31,10.22c-1.12,0-1.87.33-2.26.98-.21.37-.32.94-.32,1.71v4.58h-2.8V7.9h2.66v1.67c.43-.64.8-1.08,1.12-1.31.52-.39,1.2-.59,2.03-.59.05,0,.1,0,.13,0,.04,0,.12,0,.24.01v2.57c-.18-.02-.33-.03-.47-.04s-.25,0-.33,0Z"/>
    <path class="cls-1" d="M129.25,14.67c-.07.57-.4,1.15-.99,1.73-.91.93-2.19,1.4-3.83,1.4-1.35,0-2.55-.39-3.58-1.18s-1.55-2.06-1.55-3.83c0-1.66.47-2.93,1.4-3.81s2.15-1.33,3.64-1.33c.89,0,1.68.15,2.39.45s1.3.77,1.76,1.42c.42.57.69,1.23.81,1.98.07.44.1,1.07.09,1.9h-7.29c.04.96.37,1.63,1.01,2.02.38.24.85.36,1.39.36.57,0,1.04-.15,1.4-.44.2-.16.37-.38.52-.66h2.84ZM126.5,11.74c-.05-.66-.27-1.16-.67-1.51-.4-.34-.9-.51-1.49-.51-.64,0-1.14.18-1.5.54s-.58.86-.67,1.48h4.33Z"/>
  </g>
</svg>