<?xml version="1.0" encoding="UTF-8"?>
<svg id="_レイヤー_1" data-name="レイヤー 1" xmlns="http://www.w3.org/2000/svg" viewBox="0 0 267 40.48">
  <defs>
    <style>
      .cls-1 {
        fill: #e1e1e1;
      }
    </style>
  </defs>
  <g>
    <path class="cls-1" d="M5.31,23.96c.48-.45,1.15-.67,1.81-.71.94-.06,2-.05,2.95-.04.31,0,.71.08,1.02.08.4,0,.86-.1,1.27-.11.74-.03,1.52.04,2.25.04,3.79,0,7.59,0,11.37-.04.87,0,1.74.1,2.58.08,1.48-.04,3.02-.17,4.5-.07.43.03.84.13,1.19.37.14.09.8.74.88.87.21.33.22,1.29.2,1.69-.04.64-.23,2.37-.49,2.88-.06.12-.25.37-.34.46-1.11,1.08-4.17.53-5.61.45-.64-.03-1.22.1-1.85.14-1.38.09-2.63.03-3.99-.04-.77-.04-1.53.06-2.29.08-1.4.03-2.82-.1-4.21-.07-1.81.04-3.48.06-5.3,0-1.26-.05-2.55.2-3.85.15-.68-.03-1.97-.12-2.35-.77s-.47-2.01-.5-2.77c-.03-.89.11-2.01.79-2.65Z"/>
    <path class="cls-1" d="M28.93,11.06c.3.32.5.96.55,1.39.16,1.27.16,3.19-.44,4.34-.34.65-.81.71-1.5.75-.93.05-1.91-.1-2.83-.14-2.19-.1-4.39-.02-6.57-.07-1.93-.04-4.05.19-5.92.04-.55-.05-1.19-.23-1.5-.71-.51-.79-.53-2.82-.48-3.77s.14-1.4.93-1.94,1.67-.59,2.57-.63c1.24-.05,2.47.15,3.71.15,1.69,0,3.36.02,5.04.02,1.35,0,2.78-.15,4.11-.1.6.02,1.91.21,2.33.67Z"/>
  </g>
  <path class="cls-1" d="M72.24,23.09c-.78.82-2.64.6-3.67.52s-1.58-.08-2.27-.9c-1.21-1.45.33-4.17-1.34-5.16-.59-.35-1.01-.19-1.63-.19-.43,0-.92-.01-1.35-.04-.34-.02-1.55-.21-1.77-.1-.08.04-.12.13-.2.16-.25.1-.42-.02-.64-.02-.24,0-.56.06-.8.07-.78.01-1.57-.03-2.33.04-.67.06-1.19.21-1.49.87-.26.56-.05.95-.02,1.51.03.42,0,.89.04,1.31.02.2.15.5.15.65,0,.21-.26.54-.32.77-.25.95.19,1.67.34,2.54s-.08,1.63.64,2.3c1.11,1.02,1.99.47,3.31.54.57.03,1.16.24,1.74.14.16-.03.37-.13.53-.16.48-.09.86-.03,1.33-.01.76.02,1.43.08,2.18.04.5-.03.8.18,1.24.15.68-.05,1.21-.14,1.93-.15,1.18,0,3.95.08,4.4,1.48.36,1.13.21,2.84,0,4.02-.12.74-.74,1.56-1.54,1.58-1.41-.01-2.82-.03-4.21-.11-.72-.04-1.45.03-2.18,0-.67-.02-1.15-.02-1.81,0-2.89.07-5.77-.18-8.65.11-1.22-.06-2.66,0-3.85-.22-1.31-.24-1.9-1.52-1.88-2.74.02-1.06.11-2.1.18-3.16.06-.97-.12-1.66-.25-2.58-.15-1.08.06-1.69.14-2.72.09-1.17-.07-2.36-.14-3.52-.05-.79.11-1.83-.64-2.34-.53-.36-1.1-.5-1.75-.44-.2.02-.38.15-.62.15-1.01,0-2.28-.18-2.82-1.14-.57-1.02-.48-2.62-.47-3.78,0-.86.66-1.88,1.5-2.14,1.06-.32,2.45-.04,3.57-.17.33-.04.93-.37,1.07-.68.16-.35.04-.6.04-.94,0-.64-.05-.95-.11-1.56-.16-1.63.49-2.9,2.24-3.06,1.15-.11,2.5-.18,3.56.32.58.28,1.11,1.18,1.18,1.8.13,1.2-.42,3.55,1.07,4.16,1.18.48,2.87.31,4.14.32.08,0,.15.04.22.04.74.01,1.5-.23,2.29-.26.83-.03,1.87-.05,2.69,0,.66.04,1.07.16,1.78.11.84-.06,1.66-.1,2.51-.11,1.51-.01,3.68-.27,3.8,1.8.05.88-.04,1.89-.19,2.76s-.27,1.74-.22,2.62c.03.39.12.71.11,1.13-.02.55-.2,1.14-.22,1.63-.01.28.09.54.07.84-.01.27-.11.87-.18,1.13-.08.27-.25.6-.45.8Z"/>
  <g>
    <path class="cls-1" d="M110.08,17.31c1.12.93.75,2.46.67,3.75-.04.59.05.96-.25,1.53-.81,1.5-2.54.98-3.94,1.03-.38.02-.83.11-1.2.11-.29,0-.6-.08-.91-.08-.77,0-1.55.21-2.33.22-1.19.02-1.89-.28-3.02.4-.41.25-.64.56-.7,1.04-.02.2-.05.87-.04,1.05.03.38.19.81.22,1.23.04.63-.04,1.26-.04,1.89,0,1,.18,2.02.22,3.01s-.02,1.61-.74,2.31c-.48.47-.85.44-1.45.55-1.03.2-1.29.12-2.3.06-1.5-.09-2.93-.02-4.43,0-1.2.01-2.95.17-3.43-1.25-.28-.81-.39-2.34-.33-3.2.02-.28.12-.87.22-1.12s.61-.97.81-1.11c.31-.22,1.38-.45,1.78-.51,1.28-.17,2.7.11,2.92-1.62.07-.57-.16-1.59-.44-2.1-.25-.46-.98-.57-1.46-.61-2.7-.18-5.81.49-8.42-.08-1.64-.36-1.68-1.95-1.74-3.35-.02-.5-.02-1.93.24-2.31,1.48-2.11,4.14-1.05,6.28-.98.71.02,1.52-.13,2.25-.15,1.29-.04,2.6.02,3.89,0,.29,0,.66-.08.94-.08.92,0,1.82.25,2.76.18.46-.03.91-.17,1.38-.15.29.01.66.14.91.15.29,0,.74-.12,1.05-.15.69-.06,1.45-.04,2.14-.04.97,0,1.9.11,2.87,0,1.61-.19,4.23-.8,5.6.35Z"/>
    <path class="cls-1" d="M104.45,4.16c.18.2.47.94.52,1.21.18,1.05.12,3.47-.32,4.43-.26.56-.9.82-1.48.88-1.59.17-3.24.05-4.83.04-.94,0-1.89.08-2.84.07-1.12-.01-2.24-.18-3.38-.11-.48.03-.96.16-1.45.18-1.23.06-2.64-.01-3.84-.26-.49-.1-.83-.3-1.06-.76-.44-.87-.49-3.68-.3-4.65.04-.21.24-.86.37-1.01.27-.32,1.2-.45,1.6-.47,2.13-.12,4.46.01,6.61,0,1.34,0,2.65,0,3.99.04.73.02,1.52-.07,2.26-.11,1.24-.07,3.23-.5,4.14.52Z"/>
  </g>
  <path class="cls-1" d="M141.57,28.95c-.1.1-.31.22-.44.27-.53.2-1.32.22-1.88.2-.31-.01-.59-.14-.88-.17-.78-.07-1.37.04-1.79.75-.53.9-.31,2.41-.41,3.41-.12,1.25-1.31,1.6-2.38,1.65-.77.04-1.56.09-2.32.11s-1.42-.17-2.14-.15c-1.08.04-2.07.1-3.16.04-.54-.03-1.81-.11-2.18-.55-.15-.18-.49-.81-.57-1.03-.19-.55-.07-.82-.04-1.35.06-1.06.03-2.07.5-3.06.85-1.79,4.08-.92,5.66-.99.48-.02.93-.19,1.38-.22,1.49-.12,2.75.61,3.85-.76.44-.54.27-.92.31-1.55.05-.86.08-1.55.55-2.29s.76-.89,1.62-.96c.94-.08,2.1.25,2.92-.2.42-.23.61-.6.78-1.04.34-.89.11-1.59.16-2.49.04-.56.19-1.17.22-1.74.05-1.1-.14-2.4-.18-3.53-.02-.53.02-1.63-.51-1.92-.28-.16-.43-.06-.7-.07-.17,0-.33-.08-.48-.1-.65-.06-1.38,0-2.04-.03-.46-.03-.91-.14-1.38-.15-.76,0-1.54.19-2.29.15-.89-.05-1.63-.19-2.51.1-.73.24-.94,1.47-.96,2.13-.04,1.19.19,1.82-.39,2.95-.49.96-1.85,1.16-2.82,1.18-.81.01-1.4-.2-2.12.31-.26.18-.28.24-.36.55-.3,1.24.15,2.77-.51,3.96-.84,1.49-3.58,1.38-5.03,1.09-.35-.07-1.18-.41-1.37-.7-.22-.35-.35-1.35-.37-1.77-.04-.71-.01-1.69.04-2.4.06-.88.58-1.58,1.34-2s1.53-.24,2.38-.27c.26,0,.62-.01.87-.04.33-.03.47-.21.67-.45.76-.94.54-1.99.58-3.12.02-.46.09-.92.11-1.38.04-1.13-.23-2.41-.29-3.56-.03-.55-.1-1.68,0-2.17.13-.6.87-1.35,1.44-1.53,1.38-.45,3.55.08,4.99.17.65.04,1.3-.18,1.93-.25,1.35-.17,2.95.22,4.32.29s2.69-.48,4.03-.46c.49,0,1,.11,1.48.17.33.05.94.21,1.24.21.22,0,.57-.12.8-.14,1.15-.11,2.96-.18,4.1-.08,2.02.19,1.39,2.49,1.47,3.83.03.52.13,1.04.11,1.56-.02.56-.22,1.11-.26,1.67-.02.36.02.73,0,1.09-.06,1.11-.13,2.22-.18,3.34-.04.73-.22,1.48-.18,2.22.12,2.35.63,5.38-2.43,5.89-.71.12-1.59-.03-2.2.34-.46.28-.96.49-1.31.94-.15.18-.24.37-.27.6-.11.95.16,2.76-.56,3.49Z"/>
  <path class="cls-1" d="M186.95,4.63c.39.45.48.55.53,1.2.07,1.02-.12,2.18-.11,3.23,0,.64-.07.89-.14,1.49-.12,1-.05,2.05-.04,3.05.01,1.06.04,2.86-1.04,3.44-.78.42-1.4.2-2.22.14-.98-.07-1.51-.14-2.32.51-.72.57-.7,1.38-.78,2.23-.06.68-.14,1.57.07,2.21.08.24.19.46.49.42.09-.01.13-.08.19-.1.14-.04.39-.02.56-.05.19-.04.38-.15.55-.17,1.01-.11,2.9.12,3.56.98.51.67.41,2,.39,2.81-.03.96-.14,1.92-.18,2.87-.02.31.06.61.08.91.02.54-.05,1.01-.07,1.53-.07,1.41.18,3.57-1.69,3.83-.86.12-2.93,0-3.73-.33-.54-.22-1.09-.9-1.29-1.43-.37-.99-.23-2.59-.08-3.63.06-.44.22-1.07.22-1.48,0-.33-.12-.74-.14-1.09-.03-.63.03-1.27.04-1.89s-.05-.72-.23-1.26c-.14-.41-.04-.58-.59-.64-.5-.05-1.01.11-1.48.1s-.85-.24-1.37-.17c-.67.09-1.57.95-1.59,1.64,0,.21.07.42.08.62.02.38-.11.75-.07,1.12.04.45.11.77-.05,1.23-.5,1.43-2.16,1.38-3.43,1.37-.33,0-.71-.08-1.04.04-.05.02-.65.37-.72.41-.53.36-.43.7-.47,1.23-.06.71-.15,1.55-.26,2.25-.34,2.15-2.17,1.79-3.83,1.8-.3,0-.59.06-.91.04-.46-.03-1.01-.22-1.45-.21-.35,0-.8.17-1.17.21-.45.05-1.36.14-1.78.11-.26-.02-.58-.15-.83-.15-.63,0-.81.23-1.44-.22-1.19-.85-1.23-3.92-.84-5.19.15-.5.52-1.28,1.06-1.44.99-.29,2.14-.09,3.15-.04.42.02.86-.03,1.27,0,.44.03.78.2,1.24.18.55-.02,1.18-.17,1.74-.22.93-.08,1.94.07,2.73-.5.56-.39.45-.92.48-1.52.05-1.03-.12-3.02,1.01-3.53.33-.15.5-.08.83-.12.41-.04.92-.15,1.31-.15.69,0,1.49.33,2.12-.09s.7-1.03.69-1.74c0-1.07-.24-3.02.86-3.64.74-.42,1.05-.3,1.85-.33.23,0,.5-.07.72-.08.52,0,.79.14,1.31-.03.8-.27,1.1-.59,1.24-1.45.12-.75.21-2.05-.06-2.75-.32-.84-.84-1.02-1.69-1.11-.75-.08-1.7-.09-2.47-.11-.7-.02-1.39.06-2.07.07-.98.01-1.96.06-2.94.08-.76,0-1.57-.16-2.29-.11-.33.02-.68.18-1.02.18-1,.01-2.01-.03-3.01-.07-.58-.03-1.19-.15-1.78-.11-.48.03-1.01.16-1.49.18-.51.03-1.02-.03-1.52-.04-1.75-.03-3.68.27-4.08-1.95-.18-.97-.09-2.37,0-3.37.08-.83.55-1.81,1.5-1.81,1.53,0,3.08.07,4.61.15.72.04,1.43-.14,2.14-.18,1.18-.06,2.56-.08,3.74,0,.49.03.89.13,1.42.11,1.4-.04,3-.21,4.4-.11.37.03.76.16,1.12.18.53.04,1.04-.12,1.56-.15,1.2-.07,2.44.01,3.63.04.52.01,1.04.07,1.55,0s.9-.22,1.42-.25c1.06-.05,2.14-.05,3.19.12.11.02.36.12.45.12.06,0,.11-.08.21-.05s.11.19.17.27c.09.12.24.24.34.37Z"/>
  <path class="cls-1" d="M218.6,10.25c-.3.42-1.11,1.1-1.64,1.07-.7-.04-1.36-.34-2.04-.39-.64-.05-1-.02-1.51.36-.83.61-.6,1.59-.53,2.48.08.99.06,2.37,1.19,2.77.69.24,1.92-.2,2.71-.17.44.02.99.27,1.38.26s.91-.2,1.31-.25c.78-.1,1.7-.06,2.5-.03,1.41.06,2.55.28,3.08,1.75-.1,1.49.4,3.1-.55,4.39-.45.6-1.37.72-2.08.79-1.2.12-2.34-.04-3.52-.07-.5-.01-.9.1-1.38.14-.67.06-1.57.04-2.25,0-.81-.04-1.34-.37-2.05.24-.3.26-.37.49-.43.88-.12.74-.03,1.42-.06,2.14-.04.93-.21,1.78-.12,2.73.08.85.13,1.69.18,2.54.02.37.2.95.09,1.29-.17.52-.7,1.21-1.17,1.48-.65.36-2.51.49-3.3.52s-1.53-.19-2.29-.14c-.63.03-1.29.12-1.93.07-.26-.02-.55-.12-.8-.15-.56-.05-1.44.12-1.93-.1-1.01-.45-1.05-1.37-1.14-2.35-.09-.93-.19-2.73.4-3.49.18-.23.82-.88,1.08-.95s.41,0,.64,0c1.05,0,2.08.11,3.12-.04.91-.42.53-1.41.49-2.16-.03-.68.23-1.16-.27-1.76-.12-.15-.66-.62-.82-.67-.37-.11-1.03.07-1.44.09-.78.04-1.54-.16-2.36-.15-1.85.03-3.82.37-5.66.18-.27-.03-.69-.2-.9-.38-.69-.59-.63-2.7-.65-3.56-.01-.52-.08-.79.04-1.33.32-1.47,1.66-1.83,2.99-1.99.76-.09,1.6.11,2.28-.15.46-.18.58-.58.64-1.03.11-.79,0-1.9,0-2.72,0-.53.09-.8.46-1.18,1.34-1.37,2.67-.4,4.25-.73.17-.03.77-.33.89-.45.66-.66.29-1.68.25-2.51-.05-1.09.02-2.57.99-3.26.65-.46,1.57-.29,2.33-.32.16,0,.38-.07.54-.07,2-.05,4,.1,6,.11.75,0,2.35-.08,2.92.45.39.36.65.96.69,1.49.08,1.2.08,3.36-.63,4.36Z"/>
  <path class="cls-1" d="M241.07,10.2c1.13,0,2.49-.08,3.12,1.03s.35,2.06.3,3.22c-.04.98.51,1.87,1.54,1.95.88.07,1.93.03,2.83.04,1.1,0,1.99-.15,3.05-.26.45-.05.87.03,1.31.07s1.01.04,1.4.13c.19.04,1.15.51,1.29.64.54.49.74,1.46.71,2.16-.05,1.18-.29,2.41-.33,3.56-.01.47.09.96.07,1.42-.03.62-.18,1.32-.22,1.96-.05.89.08,1.7-.56,2.45-.28.33-1.1.71-1.53.76-.39.05-.85,0-1.23.04-.16.01-.32.09-.47.11-.45.05-1.08-.03-1.52-.16-.27-.08-.97-.54-1.1-.79-.09-.19-.25-.94-.3-1.19s-.1-.59-.12-.83c-.05-1,.56-2.79-.77-3.19-.47-.14-1.76.04-2.29.13-.31.05-1.16.21-1.38.36-.33.22-.72.93-.75,1.32-.02.28.1.59.11.87.01.35-.1.71-.11,1.06-.05,1.65.2,3.32.14,4.97-.06,1.77-.3,2.86-2.31,3-.65.04-2.28.07-2.84-.14-1.58-.61-1.41-2.02-1.43-3.44-.02-1.27.11-2.52.04-3.78-.04-.72-.19-1.42-.15-2.14.02-.44.14-.58-.02-1.06-.78-2.27-5.41,0-5.92-2.87-.2-1.11-.14-2.66.07-3.77s1.45-1.63,2.49-1.72c.71-.06,1.55.12,2.28.07.68-.05.98-.34,1-1.03,0-.28-.06-.39-.11-.62-.16-.89-.05-2.24.29-3.08.23-.57.54-.72,1.08-.96.77-.34,1.5-.28,2.33-.29Z"/>
</svg>